# xmcd
#
# Track frame offsets:
#   150
#   14979
#   36010
#   52273
#   73911
#   91277
#   106316
#   121703
#   139467
#   156899
#   170630
#   189707
#
# Disc length: 2749 seconds
#
# Revision: 0
# Processed by: cddbd v1.5PL3 Copyright (c) Steve Scherf et al.
# Submitted via: Media_Universe 3.0
#
DISCID=b40abb0c
DTITLE=Tim McGraw - A Place in the sun
DYEAR=1900
DGENRE=Country
TTITLE0=Carry On
TTITLE1=My Best Friend
TTITLE2=My Next Thirty Years
TTITLE3=Please Remember Me
TTITLE4=Seniorita Margarita
TTITLE5=Seventeen
TTITLE6=She'll Have you back
TTITLE7=Some things never change
TTITLE8=Somebody must be prayin' for me
TTITLE9=Something like that
TTITLE10=The trouble with never
TTITLE11=You don't love me anymore
EXTD=
EXTT0=
EXTT1=
EXTT2=
EXTT3=
EXTT4=
EXTT5=
EXTT6=
EXTT7=
EXTT8=
EXTT9=
EXTT10=
EXTT11=
PLAYORDER=
